<svg width="132" height="26" fill="none" xmlns="http://www.w3.org/2000/svg"><path d="M.406 25V.39h3.059v10.723h3.164v2.989H3.465V25H.406zm7.98-10.898v-2.989h3.13V.391h3.093V25h-3.093V14.102h-3.13zm8.966 5.695v-8.684c0-1.101.492-2.18 1.476-3.234 1.219-1.266 2.742-1.899 4.57-1.899v2.848c-1.382 0-2.343.574-2.882 1.723a2.476 2.476 0 00-.246 1.054v7.735c0 .867.398 1.605 1.195 2.215a3.137 3.137 0 001.933.633v2.847c-2.226 0-3.949-.902-5.168-2.707-.585-.89-.878-1.734-.878-2.531zm7.558 5.238v-2.848c1.242 0 2.133-.562 2.672-1.687.188-.375.281-.738.281-1.09v-7.805c0-.96-.41-1.722-1.23-2.285a3.204 3.204 0 00-1.758-.492V5.98c2.156 0 3.82.88 4.992 2.637.586.867.88 1.7.88 2.496v8.684c0 1.148-.493 2.262-1.477 3.34-1.149 1.242-2.602 1.875-4.36 1.898zm8.508-5.098V6.017h2.988v13.57c0 .844.422 1.547 1.266 2.11a3.446 3.446 0 001.863.527v2.953c-2.25 0-3.984-.88-5.203-2.637-.61-.89-.914-1.758-.914-2.602zm7.664 5.239v-2.953c1.266 0 2.191-.504 2.777-1.512.211-.375.317-.75.317-1.125V6.016h2.988v13.921c0 1.102-.504 2.192-1.512 3.27-1.218 1.29-2.742 1.945-4.57 1.969zm8.121-5.168l2.777-.527c0 1.054.551 1.886 1.653 2.496.539.257 1.054.398 1.547.421v2.778c-2.274 0-3.973-.82-5.098-2.461-.586-.867-.879-1.77-.879-2.707zm.176-8.649c0-2.132.973-3.714 2.918-4.746.937-.492 1.875-.738 2.812-.738v2.742c-1.078 0-1.91.445-2.496 1.336-.304.445-.457.914-.457 1.406 0 .75.586 1.36 1.758 1.829.89.374 2.613.867 5.168 1.476 1.594.328 2.73 1.113 3.41 2.356.352.656.528 1.394.528 2.214 0 2.25-.903 3.914-2.708 4.993-1.054.632-2.261.949-3.62.949v-2.778c1.078 0 1.98-.375 2.706-1.125.516-.539.774-1.171.774-1.898 0-.938-.926-1.688-2.777-2.25-.47-.14-1.22-.34-2.25-.598-1.102-.258-1.899-.468-2.391-.633-1.781-.703-2.86-1.769-3.234-3.199a6.148 6.148 0 01-.141-1.336zm7.277-2.707V5.875c2.016 0 3.645.75 4.887 2.25.773.96 1.16 1.969 1.16 3.023l-2.777.457c0-1.289-.703-2.19-2.11-2.707-.422-.164-.808-.246-1.16-.246zm8.438 11.145v-8.719c.023-1.078.539-2.144 1.547-3.2 1.218-1.241 2.695-1.874 4.43-1.898v2.778c-1.126 0-2.005.492-2.637 1.476-.258.422-.387.809-.387 1.16v2.391h7.875v-2.39c0-1.055-.54-1.829-1.617-2.32a3.48 3.48 0 00-1.512-.352V5.98c1.617 0 3.059.575 4.324 1.723 1.055 1.008 1.594 2.121 1.617 3.34v5.59H68.047v3.164c0 .656.375 1.265 1.125 1.828.61.422 1.254.633 1.934.633V25c-2.133 0-3.81-.867-5.028-2.602-.656-.914-.984-1.78-.984-2.601zM72.793 25v-2.777c1.406 0 2.46-.61 3.164-1.828.14-.258.246-.504.316-.739l2.496.914c-.421 1.617-1.382 2.836-2.882 3.657a6.444 6.444 0 01-3.094.773zm7.7-24.61h3.093l6.258 21.376L88.719 25h-1.09L80.492.39zm8.577 13.044L93.43.39h3.093c-.21.68-1.09 3.398-2.636 8.156a1765.257 1765.257 0 00-3.094 9.527h-.352l-1.37-4.64zm9.14 4.71V6.579c0-1.242.528-2.508 1.583-3.797 1.406-1.687 3.187-2.543 5.344-2.566v3.058c-1.43 0-2.543.727-3.34 2.18-.328.633-.492 1.195-.492 1.688v11.004c0 1.476.726 2.625 2.179 3.445.61.351 1.149.527 1.618.527v3.059c-1.336 0-2.672-.48-4.008-1.442-1.899-1.406-2.86-3.27-2.883-5.59zm8.825 7.032v-3.059c.82 0 1.653-.363 2.496-1.09.891-.797 1.348-1.758 1.371-2.883V7.142c0-.914-.375-1.793-1.125-2.637-.773-.797-1.687-1.207-2.742-1.23V.213c2.367 0 4.266 1.02 5.695 3.06.821 1.171 1.231 2.273 1.231 3.304v11.567c0 2.601-1.16 4.593-3.481 5.976-1.218.703-2.367 1.055-3.445 1.055zm9.774-.176h3.058V.39h-3.058V25zm4.816-11.004h3.797c3.07-.023 4.992-1.195 5.766-3.516.304-.937.457-2.05.457-3.34 0-4.288-1.934-6.538-5.801-6.75h-4.219v2.954h3.305c2.367.047 3.562 1.312 3.586 3.797-.047 2.554-1.231 3.843-3.551 3.867h-3.34v2.988z" fill="#fff"/></svg>